<svg xmlns="http://www.w3.org/2000/svg" viewBox="0 0 200 200" width="200" height="200">
  <!-- Dragon body gradient -->
  <defs>
    <linearGradient id="dragonGradient" x1="0%" y1="0%" x2="100%" y2="100%">
      <stop offset="0%" style="stop-color:#FFD700;stop-opacity:1" />
      <stop offset="50%" style="stop-color:#FF6B6B;stop-opacity:1" />
      <stop offset="100%" style="stop-color:#FF0000;stop-opacity:1" />
    </linearGradient>
    <radialGradient id="eyeGlow">
      <stop offset="0%" style="stop-color:#FFF;stop-opacity:1" />
      <stop offset="50%" style="stop-color:#FFD700;stop-opacity:1" />
      <stop offset="100%" style="stop-color:#FF0000;stop-opacity:1" />
    </radialGradient>
    <filter id="dragonShadow" x="-50%" y="-50%" width="200%" height="200%">
      <feGaussianBlur in="SourceAlpha" stdDeviation="3"/>
      <feOffset dx="2" dy="2" result="offsetblur"/>
      <feComponentTransfer>
        <feFuncA type="linear" slope="0.5"/>
      </feComponentTransfer>
      <feMerge>
        <feMergeNode/>
        <feMergeNode in="SourceGraphic"/>
      </feMerge>
    </filter>
  </defs>
  
  <!-- Background circle -->
  <circle cx="100" cy="100" r="95" fill="#1a1a2e" opacity="0.9"/>
  
  <!-- Dragon silhouette -->
  <g filter="url(#dragonShadow)">
    <!-- Dragon head -->
    <path d="M 70 80 Q 50 70, 60 50 Q 80 40, 100 45 Q 120 40, 140 50 Q 150 70, 130 80 L 120 90 Q 100 95, 80 90 Z" 
          fill="url(#dragonGradient)" stroke="#8B0000" stroke-width="2"/>
    
    <!-- Dragon horns -->
    <path d="M 75 55 L 70 40 L 75 50" fill="#FFD700" stroke="#8B0000" stroke-width="1.5"/>
    <path d="M 125 55 L 130 40 L 125 50" fill="#FFD700" stroke="#8B0000" stroke-width="1.5"/>
    
    <!-- Dragon snout -->
    <ellipse cx="100" cy="75" rx="15" ry="10" fill="#FF6B6B" opacity="0.8"/>
    
    <!-- Nostrils -->
    <circle cx="95" cy="75" r="2" fill="#8B0000"/>
    <circle cx="105" cy="75" r="2" fill="#8B0000"/>
    
    <!-- Eyes -->
    <circle cx="85" cy="65" r="8" fill="url(#eyeGlow)"/>
    <circle cx="115" cy="65" r="8" fill="url(#eyeGlow)"/>
    <circle cx="85" cy="65" r="4" fill="#000"/>
    <circle cx="115" cy="65" r="4" fill="#000"/>
    
    <!-- Dragon neck/body -->
    <path d="M 80 90 Q 70 110, 70 130 Q 70 150, 80 160 L 120 160 Q 130 150, 130 130 Q 130 110, 120 90" 
          fill="url(#dragonGradient)" stroke="#8B0000" stroke-width="2"/>
    
    <!-- Wings -->
    <path d="M 70 110 Q 40 100, 30 110 Q 25 120, 35 125 Q 50 120, 70 125" 
          fill="#FF6B6B" stroke="#8B0000" stroke-width="1.5" opacity="0.9"/>
    <path d="M 130 110 Q 160 100, 170 110 Q 175 120, 165 125 Q 150 120, 130 125" 
          fill="#FF6B6B" stroke="#8B0000" stroke-width="1.5" opacity="0.9"/>
    
    <!-- Fire breath effect -->
    <ellipse cx="100" cy="85" rx="25" ry="8" fill="#FFD700" opacity="0.3">
      <animate attributeName="opacity" values="0.3;0.6;0.3" dur="2s" repeatCount="indefinite"/>
      <animate attributeName="ry" values="8;12;8" dur="2s" repeatCount="indefinite"/>
    </ellipse>
    
    <!-- Scales detail -->
    <circle cx="90" cy="100" r="3" fill="#FFD700" opacity="0.6"/>
    <circle cx="110" cy="100" r="3" fill="#FFD700" opacity="0.6"/>
    <circle cx="100" cy="110" r="3" fill="#FFD700" opacity="0.6"/>
    <circle cx="95" cy="120" r="3" fill="#FFD700" opacity="0.6"/>
    <circle cx="105" cy="120" r="3" fill="#FFD700" opacity="0.6"/>
  </g>
  
  <!-- Fire particles -->
  <circle cx="80" cy="85" r="2" fill="#FFD700">
    <animate attributeName="cy" values="85;70;85" dur="1.5s" repeatCount="indefinite"/>
    <animate attributeName="opacity" values="1;0;1" dur="1.5s" repeatCount="indefinite"/>
  </circle>
  <circle cx="120" cy="85" r="2" fill="#FF6B6B">
    <animate attributeName="cy" values="85;70;85" dur="2s" repeatCount="indefinite"/>
    <animate attributeName="opacity" values="1;0;1" dur="2s" repeatCount="indefinite"/>
  </circle>
  <circle cx="100" cy="90" r="2" fill="#FFA500">
    <animate attributeName="cy" values="90;75;90" dur="1.7s" repeatCount="indefinite"/>
    <animate attributeName="opacity" values="1;0;1" dur="1.7s" repeatCount="indefinite"/>
  </circle>
</svg>